<svg width="64" height="64" viewBox="0 0 64 64" xmlns="http://www.w3.org/2000/svg" role="img" aria-label="Google">
  <path d="M59.4 32.7c0-2-.2-4-.5-5.8H32v11h15.4c-.7 3.7-2.8 6.8-5.9 8.9v7.4h9.6c5.6-5.1 8.8-12.7 8.8-21.5z" fill="#4285F4"/>
  <path d="M32 60c8 0 14.6-2.6 19.5-7.1l-9.6-7.4c-2.7 1.8-6.1 2.9-9.9 2.9-7.6 0-14.1-5.1-16.4-11.9H5.6v7.6C10.5 53.8 20.4 60 32 60z" fill="#34A853"/>
  <path d="M15.6 36.5c-.6-1.8-.9-3.8-.9-5.8s.3-4 .9-5.8v-7.6H5.6A28 28 0 0 0 2 30.7c0 4.5 1.1 8.7 3.6 12.4l10-6.6z" fill="#FBBC05"/>
  <path d="M32 13c4.3 0 8.2 1.5 11.2 4.3l8.4-8.4C46.6 4.3 40 2 32 2 20.4 2 10.5 8.2 5.6 17.3l10 7.6C17.9 18.1 24.4 13 32 13z" fill="#EA4335"/>
</svg>
