<svg width="64" height="64" viewBox="0 0 64 64" xmlns="http://www.w3.org/2000/svg" role="img" aria-label="OpenAI">
  <rect width="64" height="64" rx="14" fill="#111827"/>
  <path d="M31.9 14.5c3.5 0 6.4 2.9 6.4 6.4v1.4l1.2-.7a6.4 6.4 0 1 1 6.4 11.1l-1.2.7 1.2.7a6.4 6.4 0 1 1-6.4 11.1l-1.2-.7v1.4a6.4 6.4 0 1 1-12.8 0v-1.4l-1.2.7a6.4 6.4 0 1 1-6.4-11.1l1.2-.7-1.2-.7a6.4 6.4 0 1 1 6.4-11.1l1.2.7v-1.4c0-3.5 2.9-6.4 6.4-6.4Zm0 4.2a2.2 2.2 0 0 0-2.2 2.2v3.9l-3.4-2a2.2 2.2 0 1 0-2.2 3.8l3.4 2-3.4 2a2.2 2.2 0 1 0 2.2 3.8l3.4-2v3.9a2.2 2.2 0 1 0 4.4 0v-3.9l3.4 2a2.2 2.2 0 1 0 2.2-3.8l-3.4-2 3.4-2a2.2 2.2 0 1 0-2.2-3.8l-3.4 2v-3.9a2.2 2.2 0 0 0-2.2-2.2Z" fill="#fff"/>
</svg>

