<svg width="64" height="64" viewBox="0 0 64 64" fill="none" xmlns="http://www.w3.org/2000/svg">
  <rect width="64" height="64" rx="14" fill="white"/>
  <path d="M26 9C26 5.7 23.3 3 20 3C16.7 3 14 5.7 14 9V20H26V9Z" fill="#36C5F0"/>
  <path d="M26 44H20C16.7 44 14 46.7 14 50C14 53.3 16.7 56 20 56C23.3 56 26 53.3 26 50V44Z" fill="#2EB67D"/>
  <path d="M38 20H44C47.3 20 50 17.3 50 14C50 10.7 47.3 8 44 8C40.7 8 38 10.7 38 14V20Z" fill="#E01E5A"/>
  <path d="M38 55C38 58.3 40.7 61 44 61C47.3 61 50 58.3 50 55V44H38V55Z" fill="#ECB22E"/>
  <path d="M9 38C5.7 38 3 40.7 3 44C3 47.3 5.7 50 9 50H20V38H9Z" fill="#E01E5A"/>
  <path d="M44 38V50H55C58.3 50 61 47.3 61 44C61 40.7 58.3 38 55 38H44Z" fill="#36C5F0"/>
  <path d="M20 26H8C4.7 26 2 23.3 2 20C2 16.7 4.7 14 8 14C11.3 14 14 16.7 14 20V26H20Z" fill="#ECB22E"/>
  <path d="M55 26C58.3 26 61 23.3 61 20C61 16.7 58.3 14 55 14C51.7 14 49 16.7 49 20V26H55Z" fill="#2EB67D"/>
  <rect x="20" y="20" width="24" height="24" rx="6" fill="white"/>
</svg>
