<svg width="64" height="64" viewBox="0 0 64 64" fill="none" xmlns="http://www.w3.org/2000/svg">
  <circle cx="32" cy="32" r="32" fill="#1ED760"/>
  <path d="M47 27.8C37.8 22.2 25.4 21.7 16.5 24.5C15.2 24.9 13.8 24.2 13.4 22.9C13 21.6 13.7 20.2 15 19.8C25.3 16.6 39 17.2 49.6 23.5C50.8 24.2 51.2 25.7 50.5 26.9C49.8 28.1 48.2 28.5 47 27.8Z" fill="#191414"/>
  <path d="M44.9 34.8C37.2 30.1 25.3 28.7 16.2 31.3C15.1 31.6 14 31 13.7 29.9C13.4 28.8 14 27.7 15.1 27.4C25.2 24.5 38 26 47 31.4C48 32 48.4 33.3 47.8 34.3C47.2 35.3 45.9 35.4 44.9 34.8Z" fill="#191414"/>
  <path d="M42.6 41.1C36.2 37.2 26.2 36.1 18.6 38.3C17.8 38.6 16.9 38.1 16.6 37.3C16.3 36.5 16.8 35.6 17.6 35.3C26 32.8 37 34 44.2 38.4C45 38.9 45.2 39.8 44.8 40.6C44.3 41.4 43.3 41.6 42.6 41.1Z" fill="#191414"/>
</svg>
